<?xml version="1.0" encoding="UTF-8" standalone="no"?>
<!DOCTYPE svg PUBLIC "-//W3C//DTD SVG 1.1//EN" "http://www.w3.org/Graphics/SVG/1.1/DTD/svg11.dtd">
<svg width="100%" height="100%" viewBox="0 0 614 431" version="1.1" xmlns="http://www.w3.org/2000/svg" xmlns:xlink="http://www.w3.org/1999/xlink" xml:space="preserve" xmlns:serif="http://www.serif.com/" style="fill-rule:evenodd;clip-rule:evenodd;stroke-linejoin:round;stroke-miterlimit:2;">
    <g>
        <path d="M138.71,161L138.61,161.1C141.17,161.1 142.74,163.09 142.83,165.52L142.83,248.45C142.83,251 141.34,252.57 138.94,252.66L83.13,252.66L67.91,269.1L67.91,252.56L55.65,252.56C53.19,252.56 51.12,251.07 51,248.67L51,165.64C51,163.18 53,161.12 55.54,161.01L138.71,161.01L138.71,161ZM110.4,177.86L67.91,177.86L67.91,236.86L105.33,236.86C108.18,236.86 110.93,236.33 113.47,235.7C115.84,235.21 117.93,234.17 119.83,233L120.23,232.75C122,231.69 123.49,230.22 124.56,228.47L124.77,228.12L124.66,228.12C125.71,226.23 126.25,224.01 126.25,221.38C126.25,217.27 125.3,214 123.39,211.47C121.39,209.05 118.74,207.36 115.36,206.42C118.04,205.28 120.27,203.28 121.7,200.73C123.08,198.2 123.82,195.57 123.82,192.83C123.87,189.11 122.59,185.49 120.23,182.61C119.07,181.24 117.59,180.08 116,179.24C114.42,178.36 112.75,177.93 110.82,177.88L110.4,177.86ZM104.32,210.83C105.54,210.83 106.46,211.43 107.27,212.43C108.03,213.47 108.42,214.73 108.39,216.02C108.39,217.51 107.88,218.71 107.07,219.51C106.22,220.25 105.19,220.73 104.07,220.8L103.81,220.81L83.14,220.81L83.14,210.85L104.32,210.85L104.32,210.83ZM102.59,190.9C103.56,190.91 104.5,191.26 105.24,191.9C105.95,192.6 106.36,193.7 106.36,195.19C106.36,196.79 106,198.04 105.18,198.67L105.03,198.78C104.28,199.33 103.35,199.8 102.41,199.87L102.18,199.88L83.14,199.88L83.14,190.91L102.59,190.91L102.59,190.9Z" style="fill:rgb(10,179,175);fill-rule:nonzero;"/>
    </g>
</svg>
