<svg width="452" height="532" viewBox="0 0 452 532" fill="none" xmlns="http://www.w3.org/2000/svg">
<path d="M268.841 253.729H160.887V305.511H266.245C272.475 305.511 278.181 302.924 282.849 298.78C287.003 294.636 289.599 288.425 289.599 280.656C289.749 273.989 287.746 267.451 283.888 262.012C279.734 256.839 275.066 253.729 268.841 253.729V253.729ZM272.475 191.076C277.143 187.966 279.22 181.235 279.22 172.433C279.22 164.664 277.143 158.972 273.509 155.347C269.874 152.236 265.202 150.169 260.014 150.169H160.887V196.769H257.938C263.13 196.769 268.322 194.182 272.475 191.076V191.076Z" fill="#09B3AF"/>
<path d="M430.768 0H23.3542C10.3838 0 0 10.3555 0 22.7831V429.786C0 442.214 10.3838 449.983 22.835 449.983H83.0376V531.279L157.773 450.502H430.768C443.224 450.502 451.007 442.733 451.007 429.786V23.3022C451.007 10.8747 443.219 0.519191 430.249 0.519191L430.768 0ZM362.259 329.847C357.067 339.169 349.284 346.933 339.943 352.635C330.078 358.846 319.18 364.543 306.724 367.13C294.268 370.24 280.779 372.826 266.765 372.826H83.0376V82.8488H291.677C302.056 82.8488 310.878 84.9255 319.18 89.5841C326.968 93.7235 334.236 99.4204 339.943 106.151C351.566 120.288 357.815 138.08 357.586 156.38C357.586 169.842 353.952 182.788 347.207 195.216C340.204 207.722 329.254 217.555 316.069 223.177C332.674 227.84 345.649 236.123 355.514 248.032C364.855 260.459 369.523 276.512 369.523 296.708C369.523 309.655 366.927 320.53 361.739 329.847H362.259Z" fill="#09B3AF"/>
</svg>
